<?xml version="1.0" encoding="UTF-8"?>
<svg xmlns="http://www.w3.org/2000/svg" version="1.1" width="64px" height="64px" style="shape-rendering:geometricPrecision; text-rendering:geometricPrecision; image-rendering:optimizeQuality; fill-rule:evenodd; clip-rule:evenodd" xmlns:xlink="http://www.w3.org/1999/xlink">
<g><path style="opacity:1" fill="#179f45" d="M -0.5,-0.5 C 20.8333,-0.5 42.1667,-0.5 63.5,-0.5C 63.5,20.8333 63.5,42.1667 63.5,63.5C 57.5,63.5 51.5,63.5 45.5,63.5C 48.0066,34.999 35.0066,18.999 6.5,15.5C 4.11657,15.6374 1.78324,15.9707 -0.5,16.5C -0.5,10.8333 -0.5,5.16667 -0.5,-0.5 Z"/></g>
<g><path style="opacity:1" fill="#e4ede7" d="M 26.5,3.5 C 34.5694,4.06952 38.736,8.40286 39,16.5C 45.3641,23.1986 52.0308,29.5319 59,35.5C 59.7805,36.9437 59.6139,38.277 58.5,39.5C 50.9834,32.817 43.9834,25.6503 37.5,18C 27.6152,17.3341 23.9485,12.5008 26.5,3.5 Z"/></g>
<g><path style="opacity:1" fill="#f2f1ef" d="M 45.5,63.5 C 42.1667,63.5 38.8333,63.5 35.5,63.5C 36.138,38.805 24.138,27.4717 -0.5,29.5C -0.5,25.1667 -0.5,20.8333 -0.5,16.5C 1.78324,15.9707 4.11657,15.6374 6.5,15.5C 35.0066,18.999 48.0066,34.999 45.5,63.5 Z"/></g>
<g><path style="opacity:1" fill="#39aa5c" d="M 35.5,63.5 C 34.5,63.5 33.5,63.5 32.5,63.5C 35.3799,48.4283 29.7132,37.9283 15.5,32C 10.2636,30.661 4.93022,30.161 -0.5,30.5C -0.5,30.1667 -0.5,29.8333 -0.5,29.5C 24.138,27.4717 36.138,38.805 35.5,63.5 Z"/></g>
<g><path style="opacity:1" fill="#f1f1ef" d="M -0.5,30.5 C 4.93022,30.161 10.2636,30.661 15.5,32C 29.7132,37.9283 35.3799,48.4283 32.5,63.5C 21.5,63.5 10.5,63.5 -0.5,63.5C -0.5,52.5 -0.5,41.5 -0.5,30.5 Z"/></g>
<g><path style="opacity:1" fill="#37a74d" d="M 12.5,38.5 C 12.5674,39.9587 12.2341,41.2921 11.5,42.5C 8.83333,43.1667 7.16667,44.8333 6.5,47.5C 8.26465,48.4614 10.2646,48.7947 12.5,48.5C 12.5,49.5 12.5,50.5 12.5,51.5C 5.21645,51.7166 4.88312,53.7166 11.5,57.5C 11.5,58.5 11.5,59.5 11.5,60.5C 4.61334,59.9506 1.28001,56.1172 1.5,49C 2.40782,42.5919 6.07448,39.0919 12.5,38.5 Z"/></g>
<g><path style="opacity:1" fill="#1d8243" d="M 12.5,38.5 C 20.5856,38.9719 24.2522,43.3053 23.5,51.5C 19.8333,51.5 16.1667,51.5 12.5,51.5C 12.5,50.5 12.5,49.5 12.5,48.5C 10.2646,48.7947 8.26465,48.4614 6.5,47.5C 10.5546,47.8242 14.5546,47.4909 18.5,46.5C 17.2333,43.3651 14.9,42.0317 11.5,42.5C 12.2341,41.2921 12.5674,39.9587 12.5,38.5 Z"/></g>
<g><path style="opacity:1" fill="#f1f2f0" d="M 11.5,42.5 C 14.9,42.0317 17.2333,43.3651 18.5,46.5C 14.5546,47.4909 10.5546,47.8242 6.5,47.5C 7.16667,44.8333 8.83333,43.1667 11.5,42.5 Z"/></g>
<g><path style="opacity:1" fill="#1d8842" d="M 11.5,60.5 C 11.5,59.5 11.5,58.5 11.5,57.5C 14.605,57.2183 17.4383,56.2183 20,54.5C 20.8333,54.8333 21.6667,55.1667 22.5,55.5C 20.1557,59.9424 16.4891,61.609 11.5,60.5 Z"/></g>
</svg>
